<?xml version="1.0" encoding="UTF-8"?>
<svg width="80px" height="21px" viewBox="0 0 98 21" version="1.1" xmlns="http://www.w3.org/2000/svg" xmlns:xlink="http://www.w3.org/1999/xlink">
    <title>logo</title>
    <defs>
        <path d="M3.48130342,20.881875 L3.48130342,14.135625 C4.65046296,15.448125 6.13372507,16.104375 7.93108974,16.104375 C9.17877493,16.104375 10.3108529,15.7915625 11.3273237,15.1659375 C12.3437945,14.5403125 13.1399573,13.6784375 13.715812,12.5803125 C14.2916667,11.4821875 14.579594,10.26375 14.579594,8.925 C14.579594,7.58625 14.2916667,6.3678125 13.715812,5.2696875 C13.1399573,4.1715625 12.3437945,3.3096875 11.3273237,2.6840625 C10.3108529,2.0584375 9.17877493,1.745625 7.93108974,1.745625 C6.125,1.745625 4.64173789,2.3975 3.48130342,3.70125 L3.48130342,3.70125 L3.48130342,2.07375 L0,2.07375 L0,20.881875 L3.48130342,20.881875 Z M7.23744658,12.718125 C6.16426282,12.718125 5.26994302,12.355 4.55448718,11.62875 C3.83903134,10.9025 3.48130342,10.00125 3.48130342,8.925 C3.48130342,7.84875 3.83903134,6.9475 4.55448718,6.22125 C5.26994302,5.495 6.16426282,5.131875 7.23744658,5.131875 C8.31935541,5.131875 9.21585648,5.4928125 9.92694979,6.2146875 C10.6380431,6.9365625 10.9935897,7.84 10.9935897,8.925 C10.9935897,10.01 10.6380431,10.9134375 9.92694979,11.6353125 C9.21585648,12.3571875 8.31935541,12.718125 7.23744658,12.718125 Z M20.6260684,15.77625 L20.6260684,9.26625 C20.6260684,8.09375 20.97289,7.16625 21.6665331,6.48375 C22.3601763,5.80125 23.3264779,5.46 24.565438,5.46 L25.1543803,5.46 L25.1543803,1.850625 L24.565438,1.850625 C22.9862001,1.850625 21.6730769,2.515625 20.6260684,3.845625 L20.6260684,2.07375 L17.144765,2.07375 L17.144765,15.77625 L20.6260684,15.77625 Z M32.7713675,16.104375 C34.542557,16.104375 36.0258191,15.448125 37.2211538,14.135625 L37.2211538,14.135625 L37.2211538,15.77625 L40.7024573,15.77625 L40.7024573,2.07375 L37.2211538,2.07375 L37.2211538,3.70125 C36.0345442,2.3975 34.5512821,1.745625 32.7713675,1.745625 C30.869302,1.745625 29.281339,2.4325 28.0074786,3.80625 C26.7336182,5.18 26.096688,6.88625 26.096688,8.925 C26.096688,10.96375 26.7336182,12.67 28.0074786,14.04375 C29.281339,15.4175 30.869302,16.104375 32.7713675,16.104375 Z M33.4388355,12.718125 C32.3656517,12.718125 31.4713319,12.355 30.7558761,11.62875 C30.0404202,10.9025 29.6826923,10.00125 29.6826923,8.925 C29.6826923,7.84875 30.0404202,6.9475 30.7558761,6.22125 C31.4713319,5.495 32.3656517,5.131875 33.4388355,5.131875 C34.5207443,5.131875 35.4216079,5.495 36.1414263,6.22125 C36.8612447,6.9475 37.2211538,7.84875 37.2211538,8.925 C37.2211538,10.00125 36.8612447,10.9025 36.1414263,11.62875 C35.4216079,12.355 34.5207443,12.718125 33.4388355,12.718125 Z M54.1957799,20.776875 L57.7948718,19.805625 C57.5680199,18.545625 57.0030716,17.5590625 56.1000267,16.8459375 C55.1969818,16.1328125 54.0649038,15.77625 52.7037927,15.77625 L52.7037927,15.77625 L48.2540064,15.77625 C47.8264779,15.77625 47.4774751,15.666875 47.2069979,15.448125 C46.9365207,15.229375 46.8012821,14.95375 46.8012821,14.62125 C46.8012821,14.11375 47.0324964,13.72 47.4949252,13.44 C48.2452813,13.6675 48.9956375,13.78125 49.7459936,13.78125 C51.5782585,13.78125 53.1095085,13.208125 54.3397436,12.061875 C55.5699786,10.915625 56.1850962,9.485 56.1850962,7.77 C56.1850962,6.4225 55.7924679,5.236875 55.0072115,4.213125 C55.068287,3.906875 55.2275196,3.66625 55.4849092,3.49125 C55.7422988,3.31625 56.045495,3.22875 56.3944979,3.22875 L56.3944979,3.22875 L57.3629808,3.22875 L57.3629808,0 L56.2374466,0 C55.3474893,0 54.5905894,0.2121875 53.9667468,0.6365625 C53.3429042,1.0609375 52.9306446,1.645 52.7299679,2.38875 C51.7963853,1.96 50.8017272,1.745625 49.7459936,1.745625 C47.9137286,1.745625 46.3890224,2.31875 45.171875,3.465 C43.9547276,4.61125 43.3461538,6.04625 43.3461538,7.77 C43.3461538,9.47625 43.9525463,10.898125 45.1653312,12.035625 C44.6069266,12.385625 43.3199786,14.774375 43.3199786,15.474375 C43.3199786,16.568125 43.706063,17.451875 44.4782318,18.125625 C45.2504006,18.799375 46.2734152,19.13625 47.5472756,19.13625 L47.5472756,19.13625 L52.0232372,19.13625 C52.6339922,19.13625 53.1356838,19.285 53.528312,19.5825 C53.9209402,19.88 54.1434295,20.278125 54.1957799,20.776875 L54.1957799,20.776875 Z M49.7459936,10.486875 C48.9258369,10.486875 48.2474626,10.22875 47.7108707,9.7125 C47.1742788,9.19625 46.9059829,8.54875 46.9059829,7.77 C46.9059829,6.99125 47.1742788,6.34375 47.7108707,5.8275 C48.2474626,5.31125 48.9258369,5.053125 49.7459936,5.053125 C50.5574252,5.053125 51.2336182,5.31125 51.7745726,5.8275 C52.3155271,6.34375 52.5860043,6.99125 52.5860043,7.77 C52.5860043,8.54875 52.3155271,9.19625 51.7745726,9.7125 C51.2336182,10.22875 50.5574252,10.486875 49.7459936,10.486875 Z M62.6111111,15.77625 L62.6111111,7.95375 C62.6111111,7.11375 62.8772258,6.4334375 63.4094551,5.9128125 C63.9416845,5.3921875 64.6309651,5.131875 65.477297,5.131875 C66.2974537,5.131875 66.9540153,5.385625 67.4469818,5.893125 C67.9399484,6.400625 68.1864316,7.07 68.1864316,7.90125 L68.1864316,7.90125 L68.1864316,15.77625 L71.667735,15.77625 L71.667735,7.95375 C71.667735,7.105 71.9338497,6.4225 72.4660791,5.90625 C72.9983084,5.39 73.6919516,5.131875 74.5470085,5.131875 C75.3584402,5.131875 76.0062767,5.3834375 76.4905182,5.8865625 C76.9747596,6.3896875 77.2168803,7.06125 77.2168803,7.90125 L77.2168803,7.90125 L77.2168803,15.77625 L80.7112714,15.77625 L80.7112714,6.85125 C80.7112714,5.3025 80.2466613,4.064375 79.3174412,3.136875 C78.3882212,2.209375 77.1514423,1.745625 75.6071047,1.745625 C73.6265135,1.745625 72.0734509,2.489375 70.9479167,3.976875 C70.5116631,3.268125 69.9249021,2.7190625 69.1876335,2.3296875 C68.450365,1.9403125 67.6062144,1.745625 66.6551816,1.745625 C64.988693,1.745625 63.6406695,2.3275 62.6111111,3.49125 L62.6111111,3.49125 L62.6111111,2.07375 L59.1298077,2.07375 L59.1298077,15.77625 L62.6111111,15.77625 Z M89.7155449,16.104375 C91.4867343,16.104375 92.9699964,15.448125 94.1653312,14.135625 L94.1653312,14.135625 L94.1653312,15.77625 L97.6466346,15.77625 L97.6466346,2.07375 L94.1653312,2.07375 L94.1653312,3.70125 C92.9787215,2.3975 91.4954594,1.745625 89.7155449,1.745625 C87.8134793,1.745625 86.2255164,2.4325 84.951656,3.80625 C83.6777956,5.18 83.0408654,6.88625 83.0408654,8.925 C83.0408654,10.96375 83.6777956,12.67 84.951656,14.04375 C86.2255164,15.4175 87.8134793,16.104375 89.7155449,16.104375 Z M90.3830128,12.718125 C89.3098291,12.718125 88.4155093,12.355 87.7000534,11.62875 C86.9845976,10.9025 86.6268697,10.00125 86.6268697,8.925 C86.6268697,7.84875 86.9845976,6.9475 87.7000534,6.22125 C88.4155093,5.495 89.3098291,5.131875 90.3830128,5.131875 C91.4649217,5.131875 92.3657853,5.495 93.0856036,6.22125 C93.805422,6.9475 94.1653312,7.84875 94.1653312,8.925 C94.1653312,10.00125 93.805422,10.9025 93.0856036,11.62875 C92.3657853,12.355 91.4649217,12.718125 90.3830128,12.718125 Z" id="path-1"></path>
    </defs>
    <g id="Style" stroke="none" stroke-width="1" fill="none" fill-rule="evenodd">
        <g id="Mobile" transform="translate(-50.000000, -40.000000)">
            <g id="logo" transform="translate(50.000000, 40.000000)">
                <mask id="mask-2" fill="white">
                    <use xlink:href="#path-1"></use>
                </mask>
                <use id="pragma" fill="currentcolor" fill-rule="nonzero" xlink:href="#path-1"></use>
            </g>
        </g>
    </g>
</svg>